<svg width="40" height="40" viewBox="0 0 40 40" fill="none" xmlns="http://www.w3.org/2000/svg">
<path d="M8.33301 36.6667C6.94412 36.6667 5.76356 36.1806 4.79134 35.2084C3.81912 34.2362 3.33301 33.0556 3.33301 31.6667C3.33301 30.5834 3.64579 29.6112 4.27134 28.75C4.8969 27.8889 5.69523 27.2917 6.66634 26.9584V23.3334C6.66634 21.9445 7.15245 20.7639 8.12467 19.7917C9.0969 18.8195 10.2775 18.3334 11.6663 18.3334H18.333V13.0417C17.3608 12.7084 16.5625 12.1112 15.938 11.25C15.3136 10.3889 15.0008 9.41671 14.9997 8.33337C14.9997 6.94449 15.4858 5.76393 16.458 4.79171C17.4302 3.81949 18.6108 3.33337 19.9997 3.33337C21.3886 3.33337 22.5691 3.81949 23.5413 4.79171C24.5136 5.76393 24.9997 6.94449 24.9997 8.33337C24.9997 9.41671 24.6875 10.3889 24.063 11.25C23.4386 12.1112 22.6397 12.7084 21.6663 13.0417V18.3334H28.333C29.7219 18.3334 30.9025 18.8195 31.8747 19.7917C32.8469 20.7639 33.333 21.9445 33.333 23.3334V26.9584C34.3052 27.2917 35.1041 27.8889 35.7297 28.75C36.3552 29.6112 36.6674 30.5834 36.6663 31.6667C36.6663 33.0556 36.1802 34.2362 35.208 35.2084C34.2358 36.1806 33.0552 36.6667 31.6663 36.6667C30.2775 36.6667 29.0969 36.1806 28.1247 35.2084C27.1525 34.2362 26.6663 33.0556 26.6663 31.6667C26.6663 30.5834 26.9791 29.6112 27.6047 28.75C28.2302 27.8889 29.0286 27.2917 29.9997 26.9584V23.3334C29.9997 22.8612 29.8397 22.4656 29.5197 22.1467C29.1997 21.8278 28.8041 21.6678 28.333 21.6667H21.6663V26.9584C22.6386 27.2917 23.4375 27.8889 24.063 28.75C24.6886 29.6112 25.0008 30.5834 24.9997 31.6667C24.9997 33.0556 24.5136 34.2362 23.5413 35.2084C22.5691 36.1806 21.3886 36.6667 19.9997 36.6667C18.6108 36.6667 17.4302 36.1806 16.458 35.2084C15.4858 34.2362 14.9997 33.0556 14.9997 31.6667C14.9997 30.5834 15.3125 29.6112 15.938 28.75C16.5636 27.8889 17.3619 27.2917 18.333 26.9584V21.6667H11.6663C11.1941 21.6667 10.7986 21.8267 10.4797 22.1467C10.1608 22.4667 10.0008 22.8623 9.99967 23.3334V26.9584C10.9719 27.2917 11.7708 27.8889 12.3963 28.75C13.0219 29.6112 13.3341 30.5834 13.333 31.6667C13.333 33.0556 12.8469 34.2362 11.8747 35.2084C10.9025 36.1806 9.7219 36.6667 8.33301 36.6667ZM8.33301 33.3334C8.80523 33.3334 9.20134 33.1734 9.52134 32.8534C9.84134 32.5334 10.0008 32.1378 9.99967 31.6667C9.99856 31.1956 9.83856 30.8 9.51967 30.48C9.20079 30.16 8.80523 30 8.33301 30C7.86079 30 7.46523 30.16 7.14634 30.48C6.82745 30.8 6.66745 31.1956 6.66634 31.6667C6.66523 32.1378 6.82523 32.5339 7.14634 32.855C7.46745 33.1761 7.86301 33.3356 8.33301 33.3334ZM19.9997 33.3334C20.4719 33.3334 20.868 33.1734 21.188 32.8534C21.508 32.5334 21.6675 32.1378 21.6663 31.6667C21.6652 31.1956 21.5052 30.8 21.1863 30.48C20.8675 30.16 20.4719 30 19.9997 30C19.5275 30 19.1319 30.16 18.813 30.48C18.4941 30.8 18.3341 31.1956 18.333 31.6667C18.3319 32.1378 18.4919 32.5339 18.813 32.855C19.1341 33.1761 19.5297 33.3356 19.9997 33.3334ZM31.6663 33.3334C32.1386 33.3334 32.5347 33.1734 32.8547 32.8534C33.1747 32.5334 33.3341 32.1378 33.333 31.6667C33.3319 31.1956 33.1719 30.8 32.853 30.48C32.5341 30.16 32.1386 30 31.6663 30C31.1941 30 30.7986 30.16 30.4797 30.48C30.1608 30.8 30.0008 31.1956 29.9997 31.6667C29.9986 32.1378 30.1586 32.5339 30.4797 32.855C30.8008 33.1761 31.1963 33.3356 31.6663 33.3334ZM19.9997 10C20.4719 10 20.868 9.84004 21.188 9.52004C21.508 9.20004 21.6675 8.80448 21.6663 8.33337C21.6652 7.86226 21.5052 7.46671 21.1863 7.14671C20.8675 6.82671 20.4719 6.66671 19.9997 6.66671C19.5275 6.66671 19.1319 6.82671 18.813 7.14671C18.4941 7.46671 18.3341 7.86226 18.333 8.33337C18.3319 8.80448 18.4919 9.2006 18.813 9.52171C19.1341 9.84282 19.5297 10.0023 19.9997 10Z" fill="#74EB69"/>
</svg>
