<svg width="40" height="40" viewBox="0 0 40 40" fill="none" xmlns="http://www.w3.org/2000/svg">
<path d="M20.0141 8.96565C20.0841 7.99559 20.4045 7.06026 20.9439 6.25097C21.4833 5.44168 22.2234 4.78607 23.0918 4.34816C23.9602 3.91025 24.9273 3.70499 25.8988 3.75242C26.8702 3.79985 27.8127 4.09835 28.6344 4.61878C28.7283 4.68024 28.804 4.76587 28.8534 4.86667C28.9028 4.96747 28.9241 5.07972 28.9152 5.19162C28.9062 5.30352 28.8673 5.41095 28.8025 5.50261C28.7377 5.59427 28.6494 5.66678 28.5469 5.71253C27.1186 6.35514 25.9061 7.39643 25.0552 8.71133C24.2043 10.0262 23.7511 11.5588 23.75 13.125C23.75 13.3078 23.75 13.4907 23.7687 13.6703C23.7774 13.7839 23.7548 13.8977 23.7034 13.9994C23.6521 14.101 23.5739 14.1867 23.4774 14.2472C23.3809 14.3077 23.2697 14.3407 23.1558 14.3425C23.0419 14.3444 22.9297 14.3151 22.8312 14.2578C21.9104 13.7311 21.1573 12.9548 20.6588 12.0184C20.1604 11.0819 19.9368 10.0237 20.0141 8.96565ZM37.5 25.0953C37.5022 25.8096 37.3044 26.5102 36.9288 27.1178C36.5532 27.7253 36.0149 28.2156 35.375 28.5328L35.3063 28.5641L29.2391 31.1485C29.1791 31.1748 29.1169 31.1957 29.0531 31.211L19.0531 33.711C18.9541 33.7363 18.8523 33.7495 18.75 33.75H2.5C1.83696 33.75 1.20107 33.4866 0.732233 33.0178C0.263392 32.549 0 31.9131 0 31.25V25C0 24.337 0.263392 23.7011 0.732233 23.2323C1.20107 22.7634 1.83696 22.5 2.5 22.5H6.98281L10.5172 18.9641C10.9806 18.4986 11.5317 18.1295 12.1386 17.8782C12.7456 17.6269 13.3962 17.4984 14.0531 17.5H21.875C22.5353 17.5 23.187 17.6493 23.7813 17.937C24.3756 18.2246 24.8972 18.643 25.3068 19.1609C25.7164 19.6787 26.0035 20.2826 26.1466 20.9271C26.2896 21.5717 26.2849 22.2403 26.1328 22.8828L32.6703 21.3797C33.2394 21.229 33.8356 21.211 34.4128 21.327C34.9899 21.4431 35.5328 21.6902 35.9994 22.0492C36.466 22.4081 36.844 22.8695 37.1042 23.3976C37.3643 23.9258 37.4998 24.5066 37.5 25.0953ZM35 25.0953C34.9998 24.8887 34.952 24.6848 34.8603 24.4996C34.7686 24.3144 34.6354 24.1528 34.4711 24.0274C34.3069 23.9019 34.1159 23.816 33.9131 23.7763C33.7102 23.7366 33.501 23.7442 33.3016 23.7985L33.2531 23.811L22.7844 26.2188C22.6926 26.2393 22.5988 26.2498 22.5047 26.25H17.5C17.1685 26.25 16.8505 26.1183 16.6161 25.8839C16.3817 25.6495 16.25 25.3315 16.25 25C16.25 24.6685 16.3817 24.3506 16.6161 24.1161C16.8505 23.8817 17.1685 23.75 17.5 23.75H21.875C22.3723 23.75 22.8492 23.5525 23.2008 23.2009C23.5525 22.8492 23.75 22.3723 23.75 21.875C23.75 21.3777 23.5525 20.9008 23.2008 20.5492C22.8492 20.1976 22.3723 20 21.875 20H14.0531C13.7247 19.999 13.3993 20.0632 13.096 20.189C12.7926 20.3148 12.5172 20.4997 12.2859 20.7328L8.75 24.2672V31.25H18.5938L28.3484 28.811L34.2859 26.2828C34.5021 26.169 34.6829 25.9981 34.8087 25.7888C34.9346 25.5794 35.0008 25.3396 35 25.0953ZM26.25 13.125C26.25 14.2375 26.5799 15.3251 27.198 16.2501C27.8161 17.1751 28.6946 17.8961 29.7224 18.3219C30.7502 18.7476 31.8812 18.859 32.9724 18.6419C34.0635 18.4249 35.0658 17.8892 35.8525 17.1025C36.6391 16.3158 37.1749 15.3136 37.3919 14.2224C37.609 13.1313 37.4976 12.0003 37.0718 10.9724C36.6461 9.9446 35.9251 9.0661 35.0001 8.44801C34.0751 7.82993 32.9875 7.50003 31.875 7.50003C30.3832 7.50003 28.9524 8.09266 27.8975 9.14755C26.8426 10.2024 26.25 11.6332 26.25 13.125Z" fill="#121212"/>
</svg>
