<svg width="48" height="48" viewBox="0 0 48 48" fill="none" xmlns="http://www.w3.org/2000/svg">
<path d="M19.5616 7.78004C20.6896 6.82004 21.2536 6.34004 21.8416 6.05804C22.515 5.736 23.2521 5.56885 23.9986 5.56885C24.7451 5.56885 25.4821 5.736 26.1556 6.05804C26.7456 6.33804 27.3096 6.81804 28.4356 7.78004C28.8856 8.16404 29.1096 8.35404 29.3496 8.51404C29.8992 8.88239 30.5164 9.138 31.1656 9.26604C31.4476 9.32204 31.7416 9.34604 32.3296 9.39404C33.8076 9.51004 34.5456 9.57004 35.1616 9.78804C35.8651 10.0363 36.5042 10.439 37.032 10.9664C37.5598 11.4938 37.9628 12.1326 38.2116 12.836C38.4296 13.454 38.4876 14.192 38.6056 15.668C38.6516 16.256 38.6756 16.55 38.7316 16.834C38.8596 17.482 39.1156 18.1 39.4836 18.648C39.6436 18.888 39.8356 19.112 40.2176 19.562C41.1776 20.69 41.6596 21.254 41.9416 21.842C42.2636 22.5155 42.4307 23.2525 42.4307 23.999C42.4307 24.7455 42.2636 25.4826 41.9416 26.156C41.6616 26.744 41.1796 27.308 40.2176 28.436C39.9552 28.7261 39.7101 29.0313 39.4836 29.35C39.1155 29.8991 38.8598 30.5156 38.7316 31.164C38.6756 31.448 38.6516 31.742 38.6056 32.33C38.4876 33.806 38.4296 34.546 38.2116 35.162C37.9628 35.8655 37.5598 36.5043 37.032 37.0317C36.5042 37.5591 35.8651 37.9617 35.1616 38.21C34.5456 38.43 33.8076 38.488 32.3296 38.604C31.7416 38.652 31.4496 38.676 31.1656 38.732C30.5164 38.8601 29.8992 39.1157 29.3496 39.484C29.0315 39.7107 28.727 39.9558 28.4376 40.218C27.3096 41.178 26.7456 41.658 26.1576 41.94C25.4841 42.2621 24.7471 42.4292 24.0006 42.4292C23.2541 42.4292 22.517 42.2621 21.8436 41.94C21.2536 41.66 20.6896 41.18 19.5636 40.218C19.2735 39.9557 18.9683 39.7106 18.6496 39.484C18.0999 39.1157 17.4827 38.8601 16.8336 38.732C16.4484 38.6667 16.0597 38.6239 15.6696 38.604C14.1916 38.488 13.4536 38.428 12.8376 38.21C12.134 37.9617 11.4949 37.5591 10.9671 37.0317C10.4393 36.5043 10.0363 35.8655 9.78756 35.162C9.56956 34.546 9.51156 33.806 9.39356 32.33C9.3744 31.9392 9.33233 31.5499 9.26756 31.164C9.13926 30.5156 8.88366 29.8991 8.51556 29.35C8.35556 29.11 8.16356 28.886 7.78156 28.436C6.82156 27.308 6.33956 26.744 6.05756 26.156C5.73551 25.4826 5.56836 24.7455 5.56836 23.999C5.56836 23.2525 5.73551 22.5155 6.05756 21.842C6.33956 21.254 6.81956 20.69 7.78156 19.562C8.16356 19.112 8.35556 18.888 8.51556 18.648C8.88366 18.099 9.13926 17.4825 9.26756 16.834C9.32356 16.55 9.34756 16.256 9.39356 15.668C9.51156 14.192 9.56956 13.454 9.78756 12.836C10.0365 12.1324 10.4399 11.4934 10.968 10.966C11.4961 10.4386 12.1356 10.0361 12.8396 9.78804C13.4556 9.57004 14.1936 9.51004 15.6716 9.39404C16.2596 9.34604 16.5516 9.32204 16.8356 9.26604C17.4847 9.138 18.1019 8.88239 18.6516 8.51404C18.8916 8.35404 19.1136 8.16404 19.5616 7.78004Z" stroke="#74EB69" stroke-width="1.5"/>
<path d="M17 25L21 29L31 19" stroke="white" stroke-width="1.5" stroke-linecap="round" stroke-linejoin="round"/>
</svg>
