<svg width="48" height="48" viewBox="0 0 48 48" fill="none" xmlns="http://www.w3.org/2000/svg">
<path d="M4 24C4 14.572 4 9.858 6.928 6.928C9.86 4 14.572 4 24 4C33.428 4 38.142 4 41.07 6.928C44 9.86 44 14.572 44 24" stroke="white" stroke-width="1.5"/>
<path d="M4 28C4 22.4 4 19.6 5.09 17.46C6.04872 15.5785 7.57846 14.0487 9.46 13.09C11.6 12 14.4 12 20 12H28C33.6 12 36.4 12 38.54 13.09C40.4215 14.0487 41.9513 15.5785 42.91 17.46C44 19.6 44 22.4 44 28C44 33.6 44 36.4 42.91 38.54C41.9513 40.4215 40.4215 41.9513 38.54 42.91C36.4 44 33.6 44 28 44H20C14.4 44 11.6 44 9.46 42.91C7.57846 41.9513 6.04872 40.4215 5.09 38.54C4 36.4 4 33.6 4 28Z" stroke="#74EB69" stroke-width="1.5"/>
<path d="M24 34V22M24 22L29 27M24 22L19 27" stroke="#74EB69" stroke-width="1.5" stroke-linecap="round" stroke-linejoin="round"/>
</svg>
