<svg width="240" height="240" viewBox="0 0 240 240" fill="none" xmlns="http://www.w3.org/2000/svg">
<rect width="240" height="240" fill="#F0F0F0"/>
<path d="M49.8 121.961C49.8 148.76 71.6261 170.485 98.55 170.485H104.4C106.554 170.485 108.3 168.751 108.3 166.611V139.423C108.3 137.283 106.554 135.548 104.4 135.548H74.8028C71.3301 135.548 69.5892 131.378 72.0425 128.936L128.61 72.6308C129.34 71.9044 129.75 70.92 129.75 69.8937V31.6493C129.75 28.1957 125.545 26.4678 123.09 28.9122L64.0785 87.6497C55.2565 96.4309 49.8 108.562 49.8 121.961Z" fill="#1F2027"/>
<path d="M190.2 118.039C190.2 91.2395 168.374 69.5145 141.45 69.5145H135.6C133.446 69.5145 131.7 71.2492 131.7 73.3891V100.577C131.7 102.717 133.446 104.452 135.6 104.452H165.197C168.67 104.452 170.411 108.622 167.957 111.064L111.39 167.369C110.66 168.096 110.25 169.08 110.25 170.106V208.351C110.25 211.804 114.455 213.532 116.91 211.088L175.921 152.35C184.743 143.569 190.2 131.438 190.2 118.039Z" fill="#1F2027"/>
</svg>
