<svg width="40" height="40" viewBox="0 0 40 40" fill="none" xmlns="http://www.w3.org/2000/svg">
<path d="M23.0333 4.99986C23.0333 4.66578 22.8338 4.36399 22.5264 4.23312C22.2191 4.10226 21.8632 4.16761 21.6224 4.39916L18.6592 7.24845C14.2471 11.4908 10.5191 16.3912 7.60768 21.7751C7.53913 21.8961 7.5 22.036 7.5 22.1851C7.5 22.6453 7.8731 23.0184 8.33333 23.0184H15.5167V34.9999C15.5167 35.3299 15.7114 35.6288 16.0133 35.7621C16.3151 35.8955 16.6672 35.8381 16.9112 35.6159L18.237 34.4081C22.8782 30.1803 26.8169 25.2408 29.9054 19.7749L30.7255 18.3235C30.8713 18.0655 30.8691 17.7494 30.7197 17.4935C30.5704 17.2375 30.2963 17.0802 30 17.0802H23.0333V4.99986Z" fill="#74EB69"/>
</svg>
