<svg width="40" height="40" viewBox="0 0 40 40" fill="none" xmlns="http://www.w3.org/2000/svg">
<path d="M7.5 16.2764C7.5 9.5618 13.1234 4.1665 20 4.1665C26.8766 4.1665 32.5 9.5618 32.5 16.2764C32.5 20.1997 30.8781 23.7393 27.8418 25.9717C27.6323 26.1258 27.5054 26.3169 27.4612 26.5045C27.3634 26.9201 27.2551 27.4015 27.144 27.9182C27.1109 28.0721 26.975 28.1824 26.8175 28.1824H21.5833C21.3992 28.1824 21.25 28.0332 21.25 27.8491V26.7425L22.9989 23.9956C23.344 23.4535 23.2219 22.7381 22.7165 22.3412L19.7181 19.9864L21.0544 17.8875C21.4252 17.3051 21.2537 16.5325 20.6713 16.1617C20.089 15.7909 19.3163 15.9625 18.9456 16.5448L17.0011 19.5989C16.656 20.1409 16.7781 20.8564 17.2835 21.2533L20.2819 23.608L18.9456 25.707C18.8178 25.9076 18.75 26.1405 18.75 26.3783V27.8491C18.75 28.0332 18.6008 28.1824 18.4167 28.1824H13.1825C13.025 28.1824 12.8891 28.0721 12.856 27.9182C12.7449 27.4015 12.6366 26.9201 12.5388 26.5045C12.4946 26.3169 12.3677 26.1258 12.1582 25.9717C9.12188 23.7393 7.5 20.1997 7.5 16.2764Z" fill="#74EB69"/>
<path d="M13.8017 30.6824C13.5941 30.6824 13.437 30.8703 13.4723 31.0749C13.646 32.0816 13.7743 32.9872 13.8114 33.5997C13.9164 35.335 15.1945 36.7644 16.9037 37.1337L17.2303 37.2043C19.0544 37.5984 20.9456 37.5984 22.7697 37.2043L23.0963 37.1337C24.8055 36.7644 26.0836 35.335 26.1886 33.5997C26.2257 32.9872 26.354 32.0816 26.5277 31.0749C26.5629 30.8703 26.4059 30.6824 26.1983 30.6824H13.8017Z" fill="#74EB69"/>
</svg>
