<svg width="40" height="40" viewBox="0 0 40 40" fill="none" xmlns="http://www.w3.org/2000/svg">
<path fill-rule="evenodd" clip-rule="evenodd" d="M35.0172 16.952L35.0215 22.9901C34.979 23.5654 34.9242 24.1399 34.8571 24.7134C34.7449 25.6724 33.9654 26.446 32.9864 26.5554C29.9201 26.8981 26.7471 26.8981 23.6808 26.5554C22.7018 26.446 21.9222 25.6724 21.8101 24.7134C21.4438 21.5817 21.4438 18.418 21.8101 15.2864C21.9222 14.3273 22.7018 13.5538 23.6808 13.4444C26.7471 13.1017 29.9201 13.1017 32.9864 13.4444C33.9654 13.5538 34.7449 14.3273 34.8571 15.2864C34.9219 15.8407 34.9753 16.396 35.0172 16.952ZM28.3336 17.4999C26.9529 17.4999 25.8336 18.6192 25.8336 19.9999C25.8336 21.3806 26.9529 22.4999 28.3336 22.4999C29.7143 22.4999 30.8336 21.3806 30.8336 19.9999C30.8336 18.6192 29.7143 17.4999 28.3336 17.4999Z" fill="#121212"/>
<path d="M34.0062 10.0661C34.2654 10.5149 33.7791 11.0174 33.264 10.9598C30.0132 10.5965 26.6539 10.5965 23.4031 10.9598C21.2875 11.1963 19.5766 12.8622 19.327 14.9959C18.9381 18.3206 18.9381 21.6792 19.327 25.0038C19.5766 27.1376 21.2875 28.8035 23.4031 29.04C26.6539 29.4033 30.0132 29.4033 33.264 29.04C33.7825 28.982 34.2728 29.488 34.0112 29.9393C32.7135 32.1774 30.4 33.7393 27.7116 34.0222L26.6252 34.1366C21.1071 34.7172 15.5414 34.679 10.0318 34.0224L9.31187 33.9366C6.34166 33.5827 3.98824 31.2621 3.59262 28.2972C2.8578 22.7901 2.8578 17.2097 3.59262 11.7026C3.98824 8.7377 6.34166 6.41711 9.31186 6.06317L10.0318 5.97739C15.5413 5.32084 21.1071 5.28255 26.6252 5.86323L27.7116 5.97755C30.4022 6.26069 32.7121 7.82504 34.0062 10.0661Z" fill="#121212"/>
</svg>
