<svg width="34" height="34" viewBox="0 0 34 34" fill="none" xmlns="http://www.w3.org/2000/svg">
<g clip-path="url(#clip0_3743_4601)">
<path d="M17 34C26.3888 34 34 26.3888 34 17C34 7.61116 26.3888 0 17 0C7.61116 0 0 7.61116 0 17C0 26.3888 7.61116 34 17 34Z" fill="#EF0027"/>
<path d="M23.3027 10.5324L7.96875 7.71045L16.0384 28.0169L27.2829 14.3171L23.3027 10.5324ZM23.0562 11.7756L25.4022 14.0058L18.9869 15.1671L23.0562 11.7756ZM17.5929 14.9344L10.8311 9.32651L21.8832 11.3601L17.5929 14.9344ZM17.1116 15.9268L16.0087 25.043L10.064 10.0798L17.1116 15.9268ZM18.1316 16.4102L25.2365 15.1246L17.0871 25.0515L18.1316 16.4102Z" fill="white"/>
</g>
<defs>
<clipPath id="clip0_3743_4601">
<rect width="34" height="34" fill="white"/>
</clipPath>
</defs>
</svg>
