<svg width="165" height="46" viewBox="0 0 165 46" fill="none" xmlns="http://www.w3.org/2000/svg">
<path d="M1.84863 23.3337C1.84863 29.3747 7.02293 34.2719 13.4057 34.2719H14.7926C15.3032 34.2719 15.7172 33.8809 15.7172 33.3985V27.2698C15.7172 26.7875 15.3032 26.3964 14.7926 26.3964H7.77603C6.95275 26.3964 6.54005 25.4565 7.12164 24.906L20.5321 12.2137C20.7051 12.0499 20.8023 11.828 20.8023 11.5967V2.97568C20.8023 2.19716 19.8055 1.80766 19.2233 2.35867L5.23363 15.5992C3.14221 17.5787 1.84863 20.3132 1.84863 23.3337Z" fill="#74EB69"/>
<path d="M35.1331 22.4494C35.1331 16.4084 29.9588 11.5112 23.576 11.5112H22.1891C21.6785 11.5112 21.2646 11.9022 21.2646 12.3846V18.5133C21.2646 18.9957 21.6785 19.3867 22.1891 19.3867H29.2057C30.029 19.3867 30.4417 20.3267 29.8601 20.8771L16.4496 33.5695C16.2766 33.7332 16.1795 33.9551 16.1795 34.1865V42.8075C16.1795 43.586 17.1762 43.9755 17.7584 43.4245L31.7481 30.1839C33.8395 28.2045 35.1331 25.4699 35.1331 22.4494Z" fill="#74EB69"/>
<path d="M55.1108 16.371V21.5489H62.0989V25.2113H55.1108V33.1675H50.3399V12.7226H63.5021V16.371H55.1108ZM73.4932 24.1448C73.4932 23.7987 73.4465 23.4619 73.3529 23.1345C73.2687 22.8071 73.1237 22.5171 72.9179 22.2645C72.7215 22.0026 72.4595 21.7921 72.1321 21.6331C71.8047 21.474 71.4071 21.3945 70.9394 21.3945C70.1162 21.3945 69.4707 21.6331 69.0029 22.1102C68.5352 22.5779 68.2265 23.2561 68.0768 24.1448H73.4932ZM68.0207 26.6706C68.161 27.8868 68.5305 28.7708 69.1292 29.3227C69.7279 29.8653 70.4997 30.1366 71.4445 30.1366C71.9497 30.1366 72.3847 30.0758 72.7495 29.9542C73.1144 29.8326 73.4371 29.6969 73.7178 29.5472C74.0078 29.3976 74.2697 29.2619 74.5036 29.1403C74.7468 29.0187 74.9994 28.9579 75.2613 28.9579C75.6074 28.9579 75.8694 29.0842 76.0471 29.3367L77.31 30.8943C76.861 31.4088 76.3745 31.8298 75.8507 32.1572C75.3361 32.4753 74.8029 32.7279 74.251 32.915C73.7084 33.0927 73.1612 33.2143 72.6092 33.2798C72.0666 33.3546 71.5474 33.3921 71.0516 33.3921C70.032 33.3921 69.0731 33.2283 68.175 32.9009C67.2863 32.5642 66.5052 32.0684 65.8317 31.4135C65.1675 30.7587 64.6389 29.9448 64.246 28.9719C63.8625 27.999 63.6707 26.8671 63.6707 25.5761C63.6707 24.6032 63.8344 23.6818 64.1618 22.8118C64.4986 21.9418 64.9757 21.1794 65.5931 20.5245C66.2199 19.8697 66.9729 19.3505 67.8523 18.9669C68.741 18.5834 69.742 18.3916 70.8552 18.3916C71.8187 18.3916 72.6981 18.5413 73.4932 18.8406C74.2978 19.14 74.9853 19.575 75.556 20.1456C76.136 20.7163 76.585 21.4179 76.9031 22.2505C77.2305 23.0737 77.3942 24.0092 77.3942 25.0569C77.3942 25.3843 77.3802 25.651 77.3521 25.8568C77.324 26.0626 77.2726 26.2263 77.1978 26.3479C77.1229 26.4695 77.02 26.5537 76.889 26.6005C76.7674 26.6472 76.6084 26.6706 76.4119 26.6706H68.0207ZM88.6217 24.1448C88.6217 23.7987 88.575 23.4619 88.4814 23.1345C88.3972 22.8071 88.2522 22.5171 88.0464 22.2645C87.85 22.0026 87.588 21.7921 87.2606 21.6331C86.9332 21.474 86.5356 21.3945 86.0679 21.3945C85.2446 21.3945 84.5992 21.6331 84.1314 22.1102C83.6637 22.5779 83.355 23.2561 83.2053 24.1448H88.6217ZM83.1492 26.6706C83.2895 27.8868 83.659 28.7708 84.2577 29.3227C84.8564 29.8653 85.6282 30.1366 86.573 30.1366C87.0782 30.1366 87.5132 30.0758 87.878 29.9542C88.2429 29.8326 88.5656 29.6969 88.8462 29.5472C89.1362 29.3976 89.3982 29.2619 89.6321 29.1403C89.8753 29.0187 90.1279 28.9579 90.3898 28.9579C90.7359 28.9579 90.9979 29.0842 91.1756 29.3367L92.4385 30.8943C91.9895 31.4088 91.503 31.8298 90.9791 32.1572C90.4646 32.4753 89.9314 32.7279 89.3795 32.915C88.8369 33.0927 88.2896 33.2143 87.7377 33.2798C87.1951 33.3546 86.6759 33.3921 86.1801 33.3921C85.1605 33.3921 84.2016 33.2283 83.3035 32.9009C82.4148 32.5642 81.6337 32.0684 80.9601 31.4135C80.2959 30.7587 79.7674 29.9448 79.3745 28.9719C78.991 27.999 78.7992 26.8671 78.7992 25.5761C78.7992 24.6032 78.9629 23.6818 79.2903 22.8118C79.6271 21.9418 80.1042 21.1794 80.7216 20.5245C81.3484 19.8697 82.1014 19.3505 82.9808 18.9669C83.8695 18.5834 84.8705 18.3916 85.9837 18.3916C86.9472 18.3916 87.8266 18.5413 88.6217 18.8406C89.4262 19.14 90.1138 19.575 90.6845 20.1456C91.2645 20.7163 91.7135 21.4179 92.0316 22.2505C92.359 23.0737 92.5227 24.0092 92.5227 25.0569C92.5227 25.3843 92.5087 25.651 92.4806 25.8568C92.4525 26.0626 92.4011 26.2263 92.3262 26.3479C92.2514 26.4695 92.1485 26.5537 92.0175 26.6005C91.8959 26.6472 91.7369 26.6706 91.5404 26.6706H83.1492ZM106.309 16.8761C106.168 17.1007 106.019 17.269 105.86 17.3813C105.71 17.4936 105.514 17.5497 105.27 17.5497C105.055 17.5497 104.821 17.4842 104.569 17.3532C104.325 17.2129 104.045 17.0586 103.727 16.8902C103.418 16.7218 103.063 16.5721 102.66 16.4411C102.258 16.3008 101.8 16.2307 101.285 16.2307C100.396 16.2307 99.7322 16.4224 99.2926 16.806C98.8622 17.1802 98.6471 17.69 98.6471 18.3355C98.6471 18.7471 98.7781 19.0886 99.04 19.3598C99.3019 19.6311 99.6434 19.865 100.064 20.0615C100.495 20.2579 100.981 20.4403 101.524 20.6087C102.076 20.7677 102.637 20.9502 103.208 21.156C103.778 21.3524 104.335 21.5863 104.877 21.8576C105.429 22.1289 105.916 22.475 106.337 22.896C106.767 23.3169 107.113 23.8314 107.375 24.4395C107.637 25.0382 107.768 25.7632 107.768 26.6145C107.768 27.5593 107.604 28.4434 107.277 29.2666C106.949 30.0898 106.472 30.8101 105.846 31.4275C105.228 32.0356 104.461 32.5174 103.544 32.8729C102.637 33.219 101.603 33.3921 100.443 33.3921C99.8071 33.3921 99.1569 33.3266 98.4927 33.1956C97.8379 33.0646 97.2018 32.8822 96.5844 32.6483C95.9669 32.4051 95.3869 32.1198 94.8444 31.7924C94.3018 31.465 93.8294 31.1001 93.4271 30.6979L94.8303 28.4808C94.9426 28.3217 95.0876 28.1908 95.2653 28.0879C95.4524 27.9756 95.6535 27.9195 95.8687 27.9195C96.1494 27.9195 96.43 28.0084 96.7106 28.1861C97.0006 28.3638 97.3234 28.5603 97.6789 28.7755C98.0437 28.9906 98.46 29.1871 98.9277 29.3648C99.3955 29.5426 99.9474 29.6314 100.584 29.6314C101.444 29.6314 102.113 29.4443 102.59 29.0701C103.067 28.6866 103.306 28.0832 103.306 27.26C103.306 26.7829 103.175 26.3947 102.913 26.0953C102.651 25.796 102.305 25.548 101.874 25.3516C101.454 25.1551 100.972 24.9821 100.429 24.8324C99.8866 24.6827 99.33 24.519 98.7593 24.3413C98.1887 24.1542 97.6321 23.9297 97.0895 23.6677C96.5469 23.3964 96.0605 23.0456 95.6302 22.6153C95.2092 22.1756 94.8677 21.6331 94.6058 20.9876C94.3439 20.3327 94.2129 19.5282 94.2129 18.574C94.2129 17.8069 94.3673 17.0586 94.676 16.3289C94.9847 15.5992 95.4384 14.949 96.0371 14.3784C96.6358 13.8078 97.3702 13.3541 98.2402 13.0173C99.1102 12.6712 100.106 12.4981 101.229 12.4981C101.856 12.4981 102.464 12.5495 103.053 12.6524C103.652 12.746 104.218 12.891 104.751 13.0874C105.284 13.2745 105.78 13.5037 106.239 13.775C106.706 14.037 107.123 14.3363 107.487 14.6731L106.309 16.8761ZM117.363 27.2459C116.493 27.2834 115.777 27.3582 115.216 27.4705C114.654 27.5827 114.21 27.723 113.883 27.8914C113.555 28.0598 113.326 28.2516 113.195 28.4667C113.073 28.6819 113.013 28.9158 113.013 29.1684C113.013 29.6642 113.148 30.015 113.42 30.2208C113.691 30.4172 114.088 30.5155 114.612 30.5155C115.174 30.5155 115.665 30.4172 116.086 30.2208C116.507 30.0243 116.932 29.7063 117.363 29.2666V27.2459ZM109.533 20.6368C110.412 19.8603 111.385 19.285 112.451 18.9108C113.527 18.5273 114.678 18.3355 115.903 18.3355C116.783 18.3355 117.573 18.4805 118.275 18.7705C118.986 19.0511 119.584 19.4487 120.071 19.9632C120.567 20.4684 120.945 21.0718 121.207 21.7734C121.469 22.475 121.6 23.2421 121.6 24.0747V33.1675H119.608C119.196 33.1675 118.883 33.1114 118.668 32.9992C118.462 32.8869 118.289 32.653 118.148 32.2975L117.84 31.4977C117.475 31.8064 117.124 32.0777 116.787 32.3116C116.45 32.5454 116.1 32.7466 115.735 32.915C115.379 33.074 114.996 33.1909 114.584 33.2658C114.182 33.35 113.733 33.3921 113.237 33.3921C112.573 33.3921 111.97 33.3079 111.427 33.1395C110.884 32.9617 110.421 32.7045 110.038 32.3677C109.664 32.0309 109.374 31.6146 109.168 31.1188C108.962 30.6137 108.859 30.0337 108.859 29.3788C108.859 28.855 108.99 28.3264 109.252 27.7932C109.514 27.2506 109.968 26.7595 110.613 26.3198C111.259 25.8708 112.129 25.4966 113.223 25.1972C114.318 24.8979 115.697 24.7295 117.363 24.6921V24.0747C117.363 23.2234 117.185 22.6106 116.829 22.2364C116.483 21.8529 115.987 21.6611 115.342 21.6611C114.827 21.6611 114.406 21.7173 114.079 21.8295C113.752 21.9418 113.457 22.0681 113.195 22.2084C112.942 22.3487 112.695 22.475 112.451 22.5873C112.208 22.6995 111.918 22.7556 111.581 22.7556C111.282 22.7556 111.029 22.6808 110.824 22.5311C110.618 22.3814 110.449 22.2037 110.318 21.9979L109.533 20.6368ZM137.707 18.6161L132.066 33.1675H128.109L122.468 18.6161H126.088C126.397 18.6161 126.654 18.691 126.86 18.8406C127.075 18.981 127.22 19.1587 127.295 19.3739L129.315 25.8989C129.493 26.4321 129.647 26.9513 129.778 27.4564C129.919 27.9616 130.04 28.4667 130.143 28.9719C130.349 27.9616 130.634 26.9372 130.999 25.8989L133.104 19.3739C133.179 19.1587 133.319 18.981 133.525 18.8406C133.731 18.691 133.974 18.6161 134.255 18.6161H137.707ZM147.683 24.1448C147.683 23.7987 147.636 23.4619 147.543 23.1345C147.459 22.8071 147.314 22.5171 147.108 22.2645C146.911 22.0026 146.649 21.7921 146.322 21.6331C145.995 21.474 145.597 21.3945 145.129 21.3945C144.306 21.3945 143.661 21.6331 143.193 22.1102C142.725 22.5779 142.416 23.2561 142.267 24.1448H147.683ZM142.211 26.6706C142.351 27.8868 142.72 28.7708 143.319 29.3227C143.918 29.8653 144.69 30.1366 145.634 30.1366C146.14 30.1366 146.575 30.0758 146.939 29.9542C147.304 29.8326 147.627 29.6969 147.908 29.5472C148.198 29.3976 148.46 29.2619 148.693 29.1403C148.937 29.0187 149.189 28.9579 149.451 28.9579C149.797 28.9579 150.059 29.0842 150.237 29.3367L151.5 30.8943C151.051 31.4088 150.564 31.8298 150.041 32.1572C149.526 32.4753 148.993 32.7279 148.441 32.915C147.898 33.0927 147.351 33.2143 146.799 33.2798C146.256 33.3546 145.737 33.3921 145.242 33.3921C144.222 33.3921 143.263 33.2283 142.365 32.9009C141.476 32.5642 140.695 32.0684 140.022 31.4135C139.357 30.7587 138.829 29.9448 138.436 28.9719C138.052 27.999 137.861 26.8671 137.861 25.5761C137.861 24.6032 138.024 23.6818 138.352 22.8118C138.688 21.9418 139.166 21.1794 139.783 20.5245C140.41 19.8697 141.163 19.3505 142.042 18.9669C142.931 18.5834 143.932 18.3916 145.045 18.3916C146.009 18.3916 146.888 18.5413 147.683 18.8406C148.488 19.14 149.175 19.575 149.746 20.1456C150.326 20.7163 150.775 21.4179 151.093 22.2505C151.42 23.0737 151.584 24.0092 151.584 25.0569C151.584 25.3843 151.57 25.651 151.542 25.8568C151.514 26.0626 151.462 26.2263 151.388 26.3479C151.313 26.4695 151.21 26.5537 151.079 26.6005C150.957 26.6472 150.798 26.6706 150.602 26.6706H142.211ZM157.83 20.8613C158.279 20.0755 158.794 19.4581 159.374 19.009C159.963 18.56 160.637 18.3355 161.394 18.3355C162.049 18.3355 162.582 18.4898 162.994 18.7986L162.713 21.9979C162.667 22.2037 162.587 22.344 162.475 22.4189C162.372 22.4937 162.227 22.5311 162.04 22.5311C161.965 22.5311 161.867 22.5264 161.745 22.5171C161.624 22.5077 161.497 22.4984 161.366 22.489C161.235 22.4703 161.1 22.4563 160.959 22.4469C160.828 22.4282 160.707 22.4189 160.595 22.4189C159.958 22.4189 159.449 22.5873 159.065 22.924C158.691 23.2608 158.373 23.7285 158.111 24.3272V33.1675H153.761V18.6161H156.343C156.558 18.6161 156.736 18.6348 156.876 18.6723C157.026 18.7097 157.147 18.7705 157.241 18.8547C157.344 18.9295 157.419 19.0324 157.465 19.1634C157.521 19.2944 157.568 19.4534 157.606 19.6405L157.83 20.8613Z" fill="white"/>
</svg>
