<svg width="124" height="30" viewBox="0 0 124 30" fill="none" xmlns="http://www.w3.org/2000/svg">
<path d="M13.055 10.1289H14.8542C14.9815 10.1289 15.1089 10.1289 15.2204 10.1774L15.3159 7.3457L13.0391 10.1289H13.055Z" fill="#1390CF"/>
<path d="M16.2566 7.92816L15.3172 7.36182V7.47509L15.2217 10.1935C15.2694 10.1935 15.3013 10.1935 15.3491 10.2259L15.6675 9.91845L16.2566 8.72104L16.384 8.21942L16.2566 7.92816Z" fill="#33C0DD"/>
<path d="M16.7814 7.32959C16.6221 7.32959 16.4629 7.32959 16.3037 7.36195V7.97684L16.3833 8.09011L17.1317 8.18719H18.1188L19.0423 8.15483C18.4372 7.63703 17.6412 7.32959 16.7973 7.32959H16.7814Z" fill="#0099D6"/>
<path d="M18.9949 8.13879L16.3041 7.99316L15.2373 10.1614V10.1938C15.2851 10.1938 15.3488 10.2262 15.3965 10.2424L16.7021 9.93491L18.0714 9.04494L19.2815 8.36533L19.0108 8.15498L18.9949 8.13879Z" fill="#96D8ED"/>
<path d="M19.0429 8.17061C19.0429 8.17061 19.0111 8.13825 18.9952 8.12207L15.2217 10.1771C15.9382 10.3551 16.4636 11.0185 16.4636 11.7952H16.5432L17.6418 11.0671L18.7245 9.61074L19.0907 8.31625L19.0429 8.17061Z" fill="#1BA0DA"/>
<path d="M19.0111 8.13825L16.4795 11.8276L18.2946 12.1997L19.8231 11.5525L20.2689 11.3907C20.2689 11.2289 20.3008 11.0832 20.3008 10.9214C20.3008 9.78874 19.7913 8.7855 18.9952 8.12207L19.0111 8.13825Z" fill="#1190CF"/>
<path d="M20.3163 10.8896L16.495 11.812V11.8443C16.495 11.9252 16.4632 12.0223 16.4473 12.1032L16.6861 12.8314L17.6892 14.1421L18.1828 14.2392C19.4406 13.689 20.3163 12.4107 20.3163 10.9382V10.9058V10.8896Z" fill="#056DB5"/>
<path d="M16.3048 12.54C16.05 13.0578 15.5405 13.43 14.9514 13.4786H12.8975L15.2061 16.1323H15.3176L15.5087 15.9381L16.2092 14.0449L16.4003 12.9608L16.3048 12.5562V12.54Z" fill="#1C3A69"/>
<path d="M16.4629 11.7627V11.7951C16.4629 12.1672 16.3515 12.4909 16.1604 12.7659L15.2051 16.1316H15.4439C15.619 16.1316 15.7942 16.1316 15.9693 16.1964H16.2718L17.2749 15.3387L17.9277 14.7077L18.2621 14.2546L16.4788 11.7627C16.4788 11.7627 16.4788 11.7627 16.4629 11.7627Z" fill="#005893"/>
<path d="M18.7083 14.8212L18.4376 14.3034C18.3898 14.3034 18.3262 14.2711 18.2784 14.2549L15.2373 16.1481H15.4443C16.5429 16.1481 17.4186 17.0542 17.4186 18.1707C17.4186 19.2872 17.4186 18.284 17.4186 18.3487L18.2625 17.8633L18.8197 16.8277L18.7242 14.8374H18.7083V14.8212Z" fill="#056DB5"/>
<path d="M18.2628 14.2388L17.4189 18.1061V18.3164L18.8042 18.8019L21.4631 18.8342V18.5268C21.4631 16.488 20.1098 14.7566 18.2787 14.2388H18.2628Z" fill="#005D9D"/>
<path d="M21.4307 18.1872L17.4025 18.1387C17.4025 18.3814 17.3706 18.5917 17.291 18.8021L17.3865 19.6112L17.8164 20.7438L18.7399 22.1031L19.2653 22.362C20.555 21.5853 21.4307 20.1613 21.4307 18.5108V18.171V18.1872Z" fill="#1C3A69"/>
<path d="M17.4181 18.1387C17.4181 19.2552 16.5265 20.1613 15.4438 20.1613H15.1572L15.2368 21.1969L17.8003 22.2002L18.9148 22.5723C19.074 22.4914 19.2332 22.4105 19.3925 22.3134L17.4181 18.1387Z" fill="#134F7E"/>
<path d="M15.3477 20.1617H15.0611L14.6312 22.2167L14.4561 22.9772H17.1309C17.9748 22.9772 18.755 22.7183 19.4237 22.2976L15.3636 20.1455H15.3477V20.1617Z" fill="#1C3A69"/>
<path d="M15.3327 20.1611H12.6897L12.626 20.1935L12.9126 21.0511L13.9316 22.6854L14.4252 22.9928H14.9665V22.9767L15.3327 20.1611Z" fill="#134F7E"/>
<path d="M12.689 20.1611L12.5138 20.2744V20.3229L12.0043 21.488L11.877 21.7469V22.9928H14.9817L12.689 20.1611Z" fill="#056DB5"/>
<path d="M11.8623 20.7274V22.9442L12.6902 20.1772L11.8623 20.7274Z" fill="#1D4D82"/>
<path d="M7.81765 7.31348L6.33691 8.83451L8.70928 8.88306L7.81765 7.31348Z" fill="#4DA2D3"/>
<path d="M9.42492 7.31348L8.94727 8.70506L10.8579 8.52707L9.42492 7.31348Z" fill="#2D68B1"/>
<path d="M6.27246 21.6657L7.57806 23.0088L8.35823 21.6172L6.27246 21.6657Z" fill="#50A2D2"/>
<path d="M14.2969 5.63037V7.0705L15.4433 5.63037H14.2969Z" fill="#6AACD1"/>
<path d="M9.68066 5.79199L11.5117 6.85995L11.5595 5.8729L9.68066 5.79199Z" fill="#72CDE6"/>
<path d="M14.5998 23.1875L14.5361 24.5791H15.8417L14.5998 23.1875Z" fill="#42467F"/>
<path d="M15.3164 23.5596L16.5583 24.9512V23.5596H15.3164Z" fill="#1C3A69"/>
<path d="M9.56789 23.3008L9.48828 24.5791L11.2079 24.6762L9.56789 23.3008Z" fill="#98CBE6"/>
<path d="M9.31348 18.8018L9.55231 21.2775L11.6699 19.6432L9.31348 18.8018Z" fill="#056DB5"/>
<path d="M7.97754 20.3389L8.70995 21.7143L8.99654 20.355L7.97754 20.3389Z" fill="#54A4D3"/>
<path d="M12.8648 17.6533L11.1611 18.4462L12.9125 19.2714L12.8648 17.6533Z" fill="#0062A7"/>
<path d="M10.1735 17.4429L9.61621 18.3652L11.2084 18.0901L10.1735 17.4429Z" fill="#5CABD8"/>
<path d="M8.16699 16.7471L8.19884 17.8636H9.0427L8.16699 16.7471Z" fill="#1278B9"/>
<path d="M12.769 16.0674L12.2754 17.5237L13.5332 16.7955L12.769 16.0674Z" fill="#53A5D4"/>
<path d="M10.3643 14.5947L11.0807 17.1352L12.5456 15.776L10.3643 14.5947Z" fill="#0678BD"/>
<path d="M8.50195 16.0509L9.31397 16.5525L9.88716 15.5654L8.50195 16.0509Z" fill="#98CBE6"/>
<path d="M12.96 14.2227L12.9918 15.4362L14.0427 15.4686L12.96 14.2227Z" fill="#1279BB"/>
<path d="M9.6331 13.624L9.25098 14.5464L9.96746 14.3522L9.6331 13.624Z" fill="#54A4D3"/>
<path d="M12.546 13.6241L10.4443 13.1387L12.562 15.0642L12.546 13.6241Z" fill="#4BA1D3"/>
<path d="M7.78516 13.1064L8.16728 13.7537L8.69271 13.4463L7.78516 13.1064Z" fill="#4DA2D3"/>
<path d="M9.01172 11.7954L9.10725 13.4297L9.77597 12.9443L9.01172 11.7954Z" fill="#92C7E6"/>
<path d="M9.93457 11.8764L12.6095 13.1062L13.119 10.7275L9.93457 11.8764Z" fill="#21C1E4"/>
<path d="M8.08887 11.634L8.39138 11.9091L8.40731 11.1162L8.08887 11.634Z" fill="#92C6E4"/>
<path d="M8.6452 9.5625L8.29492 9.98321L8.96364 10.3716L8.6452 9.5625Z" fill="#4BA2D3"/>
<path d="M9.74414 8.85059L10.3492 11.0674L11.6707 9.64347L9.74414 8.85059Z" fill="#94D7EC"/>
<path d="M11.5749 20.9702L9.39355 22.5883L11.5749 24.4168V20.9702Z" fill="#056DB5"/>
<path d="M8.82009 22.9282L8.15137 23.4137H9.4092L8.82009 22.9282Z" fill="#2763A1"/>
<path d="M8.82031 5.6626L8.884 6.79528L11.4474 7.19981L8.82031 5.6626Z" fill="#38C3E3"/>
<path d="M14.9658 6.90876L16.0804 7.57219V5.61426L14.9658 6.90876Z" fill="#2D68B1"/>
<path d="M14.5196 7.29701L11.6855 7.26465L12.2906 7.68536L12.2428 7.78245C12.2428 7.78245 12.211 7.81481 12.1632 7.78245L12.2906 8.36497L13.3414 8.60769H13.437L13.6121 8.38115L14.5515 7.26465H14.5037V7.29701H14.5196Z" fill="#6AACD1"/>
<path d="M12.2751 7.68555L11.9407 8.04153L11.9248 8.78587L12.6572 9.38458L12.6891 9.4493H12.705L13.5966 8.4137L12.2751 7.68555Z" fill="#72CDE6"/>
<path d="M12.2749 7.68529L9.83887 7.28076L12.7048 9.44905L12.2908 7.68529H12.2749Z" fill="#38C3E3"/>
<path d="M0.380859 0.873047V29.1255H28.0691V0.873047H0.380859ZM26.0948 27.119H2.35518V2.87952H26.0948V27.1028V27.119Z" fill="#0086FF"/>
<path d="M83.0318 18.8348C83.9712 18.1552 85.0698 17.8315 86.2958 17.8315C87.5218 17.8315 88.1587 18.0743 88.7956 18.5759C89.4325 19.0613 89.7509 19.7247 89.7509 20.5662C89.7509 21.4076 89.6872 21.2781 89.5598 21.5856C89.4325 21.9092 89.2892 22.1843 89.114 22.4108C88.9389 22.6374 88.7 22.8801 88.3975 23.139C88.095 23.3979 87.8084 23.5921 87.5855 23.7539C87.3626 23.9157 87.0282 24.0937 86.6461 24.3364C85.5793 24.9675 84.8629 25.4367 84.5126 25.7442C83.7165 26.4561 83.3184 27.3137 83.3025 28.3008H89.8783V28.9157H82.6338V28.5597C82.6338 28.0743 82.6975 27.605 82.8408 27.1843C82.9841 26.7636 83.1433 26.4076 83.3344 26.1325C83.5254 25.8574 83.7961 25.5662 84.1305 25.2749C84.4807 24.9836 84.7832 24.7571 85.0221 24.5953C85.2609 24.4335 85.6112 24.2393 86.0252 23.9804C86.057 23.9642 86.0888 23.948 86.1048 23.9319C86.1207 23.9319 86.1525 23.9157 86.1685 23.8995C86.2003 23.8995 86.2162 23.8671 86.2321 23.8671C86.6461 23.6082 86.9486 23.4303 87.1078 23.317C87.283 23.2037 87.5218 23.0419 87.8403 22.783C88.1587 22.5403 88.3816 22.3299 88.5249 22.1358C88.6523 21.9578 88.7797 21.715 88.907 21.44C89.0344 21.1649 89.0822 20.8574 89.0822 20.5338C89.0822 19.8866 88.8115 19.3688 88.2861 18.9804C87.7607 18.6082 87.0601 18.4141 86.1844 18.4141C85.3087 18.4141 84.0031 18.7539 82.9681 19.4497V18.8186L83.0318 18.8348Z" fill="white"/>
<path d="M92.8393 27.5402C92.0592 26.5208 91.6611 25.1454 91.6611 23.4625C91.6611 21.7797 92.0592 20.4043 92.8393 19.3849C93.6354 18.3655 94.7818 17.8477 96.2944 17.8477C97.807 17.8477 98.9693 18.3655 99.7495 19.3849C100.53 20.4043 100.928 21.7635 100.928 23.4787C100.928 25.1939 100.53 26.5532 99.7495 27.5726C98.9693 28.592 97.807 29.1098 96.2944 29.1098C94.7818 29.1098 93.6354 28.592 92.8393 27.5726V27.5402ZM99.2877 27.1357C99.9565 26.2457 100.291 25.0159 100.291 23.4625C100.291 21.9091 99.9565 20.6794 99.2877 19.7894C98.619 18.8994 97.6159 18.4464 96.2944 18.4464C94.9729 18.4464 93.9698 18.8994 93.3011 19.7894C92.6324 20.6794 92.298 21.9091 92.298 23.4625C92.298 25.0159 92.6324 26.2457 93.3011 27.1357C93.9698 28.0256 94.9729 28.4787 96.2944 28.4787C97.6159 28.4787 98.619 28.0256 99.2877 27.1357Z" fill="white"/>
<path d="M102.966 18.8348C103.906 18.1552 105.004 17.8315 106.23 17.8315C107.456 17.8315 108.093 18.0743 108.73 18.5759C109.367 19.0613 109.685 19.7247 109.685 20.5662C109.685 21.4076 109.622 21.2781 109.494 21.5856C109.367 21.893 109.224 22.1843 109.049 22.4108C108.873 22.6374 108.635 22.8801 108.332 23.139C108.03 23.3979 107.743 23.5921 107.52 23.7539C107.281 23.8995 106.963 24.0937 106.581 24.3364C105.514 24.9675 104.797 25.4367 104.447 25.7442C103.651 26.4561 103.253 27.3137 103.237 28.3008H109.813V28.9157H102.568V28.5597C102.568 28.0743 102.632 27.605 102.775 27.1843C102.919 26.7636 103.078 26.4076 103.269 26.1325C103.46 25.8574 103.731 25.5662 104.065 25.2749C104.415 24.9836 104.718 24.7571 104.957 24.5953C105.195 24.4335 105.546 24.2393 105.96 23.9804C105.992 23.9642 106.023 23.948 106.039 23.9319C106.055 23.9319 106.087 23.9157 106.103 23.8995C106.135 23.8995 106.151 23.8671 106.167 23.8671C106.581 23.6082 106.883 23.4303 107.042 23.317C107.218 23.2037 107.456 23.0419 107.775 22.783C108.093 22.5403 108.316 22.3299 108.459 22.1358C108.587 21.9578 108.714 21.715 108.842 21.44C108.969 21.1649 109.017 20.8574 109.017 20.5338C109.017 19.8866 108.746 19.3688 108.221 18.9804C107.695 18.6082 106.995 18.4141 106.119 18.4141C105.243 18.4141 103.938 18.7539 102.903 19.4497V18.8186L102.966 18.8348Z" fill="white"/>
<path d="M112.248 18.0098H118.41V18.6247H112.853L112.566 22.9127C113.362 22.6538 114.159 22.5243 114.986 22.5243C115.814 22.5243 117.072 22.7994 117.821 23.3334C118.585 23.8674 118.951 24.6926 118.951 25.7929C118.951 26.8933 118.601 27.5729 117.884 28.1716C117.168 28.7703 116.228 29.0777 115.05 29.0777C113.872 29.0777 112.598 28.835 111.627 28.3334V27.7185C112.614 28.2201 113.729 28.479 114.986 28.479C116.244 28.479 116.833 28.2363 117.423 27.7509C118.028 27.2654 118.314 26.6182 118.314 25.7929C118.314 24.9677 117.98 24.191 117.327 23.7703C116.674 23.3334 115.83 23.123 114.795 23.123C113.76 23.123 112.853 23.301 111.898 23.6408L112.232 18.0098H112.248Z" fill="white"/>
<path d="M31.7158 17.7833H39.438V19.9192H34.0723V22.5082H38.9921V24.6441H34.0723V28.8836H31.7317V17.7671L31.7158 17.7833Z" fill="#0086FF"/>
<path d="M41.3165 28.0587C40.5204 27.3467 40.1064 26.3596 40.1064 25.0975C40.1064 23.8354 40.5045 22.8321 41.3165 22.1363C42.1126 21.4243 43.0998 21.0684 44.2461 21.0684C45.3925 21.0684 46.3956 21.4243 47.1917 22.1363C47.9878 22.8483 48.3858 23.8354 48.3858 25.0975C48.3858 26.3596 47.9878 27.3629 47.1917 28.0587C46.3956 28.7706 45.4084 29.1266 44.2461 29.1266C43.0838 29.1266 42.1126 28.7706 41.3165 28.0587ZM45.6791 26.57C46.0294 26.1816 46.1886 25.6962 46.1886 25.0813C46.1886 24.4664 46.0135 23.981 45.6791 23.5926C45.3288 23.2043 44.8671 23.0101 44.2621 23.0101C43.657 23.0101 43.1794 23.2043 42.845 23.5926C42.5107 23.981 42.3355 24.4664 42.3355 25.0813C42.3355 25.6962 42.5107 26.1816 42.845 26.57C43.1794 26.9583 43.657 27.1525 44.2621 27.1525C44.8671 27.1525 45.3448 26.9583 45.6791 26.57Z" fill="#0086FF"/>
<path d="M51.7297 22.4274C52.0163 21.9905 52.4143 21.6345 52.9557 21.3918C53.4811 21.1491 54.0861 21.052 54.7708 21.1167V23.2526C54.1816 23.1394 53.6244 23.2041 53.1149 23.4145C52.6054 23.6248 52.2233 23.9646 52.0003 24.4177V28.8999H49.835V21.2785H51.7615V22.4274H51.7297Z" fill="#0086FF"/>
<path d="M61.1236 21.2783H63.289V28.8997H61.3624V27.9288C60.6778 28.7217 59.8498 29.1262 58.8627 29.1262C57.8755 29.1262 57.1272 28.835 56.6018 28.2524C56.0763 27.6699 55.8057 26.9256 55.8057 26.0032V21.2945H57.971V25.7282C57.971 26.2298 58.0984 26.6019 58.3532 26.8608C58.6079 27.1197 58.9582 27.2492 59.4199 27.2492C60.0887 27.2492 60.6459 26.9256 61.1077 26.2783V21.3107L61.1236 21.2783Z" fill="#0086FF"/>
<path d="M67.3021 28.8997H65.1367V21.2783H67.0633V22.1683C67.3021 21.877 67.6365 21.6181 68.0504 21.3916C68.4644 21.165 68.9421 21.0518 69.4516 21.0518C70.4865 21.0518 71.2507 21.4239 71.7443 22.1844C72.5086 21.4401 73.3365 21.0518 74.2441 21.0518C75.1516 21.0518 75.8999 21.3592 76.3617 21.9579C76.8075 22.5728 77.0463 23.2686 77.0463 24.0615V28.8835H74.8969V24.2071C74.8969 23.8187 74.7854 23.5113 74.5784 23.2848C74.3714 23.0582 74.0848 22.945 73.7346 22.945C73.1773 22.945 72.6837 23.2039 72.2538 23.7055C72.2538 23.7864 72.2538 23.8997 72.2538 24.0615V28.8835H70.1044V24.2071C70.1044 23.8187 69.9929 23.5113 69.7859 23.2848C69.5789 23.0582 69.2923 22.945 68.9421 22.945C68.3211 22.945 67.7957 23.2524 67.3339 23.8673V28.8835L67.3021 28.8997Z" fill="#0086FF"/>
<path d="M31.7142 1.37451H36.4907C37.6849 1.37451 38.6243 1.61723 39.2771 2.08649C39.9458 2.55574 40.2642 3.25153 40.2642 4.19005C40.2642 5.12856 39.707 6.24506 38.6084 6.61723C39.2134 6.79522 39.707 7.11885 40.105 7.55574C40.5031 8.00882 40.6941 8.60752 40.6941 9.36804C40.6941 10.1286 40.5668 10.4845 40.2961 10.9214C40.0413 11.3421 39.6911 11.6658 39.2452 11.8761C38.7994 12.0865 38.3536 12.2483 37.8919 12.3292C37.4301 12.4101 36.9366 12.4748 36.3952 12.4748H31.6982V1.37451H31.7142ZM38.3536 9.12532C38.3536 8.17063 37.7327 7.70137 36.4907 7.70137H34.0228V10.5655H36.3634C36.9843 10.5655 37.462 10.4684 37.8123 10.258C38.1625 10.0638 38.3377 9.67548 38.3377 9.12532H38.3536ZM37.9396 4.59458C37.9396 3.75315 37.3824 3.33244 36.2838 3.33244H34.0547V5.87289H36.4111C36.8729 5.87289 37.2391 5.75962 37.5257 5.54927C37.8123 5.33891 37.9396 5.01529 37.9396 4.61076V4.59458Z" fill="#0086FF"/>
<path d="M42.127 0.905273H44.2923V12.491H42.127V0.905273Z" fill="#0086FF"/>
<path d="M46.9513 11.6495C46.1552 10.9375 45.7412 9.95044 45.7412 8.68831C45.7412 7.42617 46.1393 6.42293 46.9513 5.72714C47.7474 5.01517 48.7345 4.65918 49.8809 4.65918C51.0273 4.65918 52.0304 5.01517 52.8265 5.72714C53.6226 6.43912 54.0206 7.42617 54.0206 8.68831C54.0206 9.95044 53.6226 10.9537 52.8265 11.6495C52.0304 12.3614 51.0432 12.7174 49.8809 12.7174C48.7186 12.7174 47.7474 12.3614 46.9513 11.6495ZM51.3139 10.1608C51.6642 9.77245 51.8234 9.28701 51.8234 8.67213C51.8234 8.05724 51.6482 7.5718 51.3139 7.18345C50.9636 6.7951 50.5019 6.60093 49.8968 6.60093C49.2918 6.60093 48.8141 6.7951 48.4798 7.18345C48.1454 7.5718 47.9703 8.05724 47.9703 8.67213C47.9703 9.28701 48.1454 9.77245 48.4798 10.1608C48.8141 10.5491 49.2918 10.7433 49.8968 10.7433C50.5019 10.7433 50.9795 10.5491 51.3139 10.1608Z" fill="#0086FF"/>
<path d="M55.024 8.78553C55.024 8.08974 55.1514 7.45867 55.3902 6.90851C55.6291 6.35834 55.9634 5.92145 56.3615 5.59783C56.7754 5.2742 57.2213 5.03148 57.6989 4.86967C58.1925 4.70786 58.702 4.62695 59.2433 4.62695C60.1031 4.62695 60.8833 4.80495 61.552 5.17711V7.11886C60.9629 6.73051 60.3101 6.55252 59.5459 6.55252C58.7816 6.55252 58.3358 6.73051 57.89 7.07032C57.4442 7.42631 57.2213 7.96029 57.2213 8.67226C57.2213 9.38423 57.4442 9.88585 57.89 10.258C58.3358 10.6302 58.8771 10.8082 59.514 10.8082C60.1509 10.8082 61.0266 10.6302 61.6157 10.258V12.216C60.8355 12.5558 59.9917 12.7176 59.0841 12.7176C58.1766 12.7176 56.9984 12.3778 56.2023 11.7143C55.4062 11.0347 54.9922 10.0638 54.9922 8.80171L55.024 8.78553Z" fill="#0086FF"/>
<path d="M70.7389 12.491H68.3029L66.1534 9.48131H65.2777V12.491H63.1123V1.37451H65.2777V7.70137H66.1852L68.0959 4.85348H70.5319L67.9526 8.60752L70.7548 12.4587L70.7389 12.491Z" fill="#0086FF"/>
<path d="M70.8658 8.78553C70.8658 8.08974 70.9932 7.45867 71.232 6.90851C71.4709 6.35834 71.8052 5.92145 72.2033 5.59783C72.6172 5.2742 73.0631 5.03148 73.5407 4.86967C74.0343 4.70786 74.5438 4.62695 75.0851 4.62695C75.9449 4.62695 76.7251 4.80495 77.3938 5.17711V7.11886C76.8047 6.73051 76.1519 6.55252 75.3877 6.55252C74.6234 6.55252 74.1776 6.73051 73.7318 7.07032C73.286 7.42631 73.0631 7.96029 73.0631 8.67226C73.0631 9.38423 73.286 9.88585 73.7318 10.258C74.1776 10.6302 74.7189 10.8082 75.3558 10.8082C75.9927 10.8082 76.8684 10.6302 77.4575 10.258V12.216C76.6773 12.5558 75.8335 12.7176 74.9259 12.7176C74.0184 12.7176 72.8401 12.3778 72.0441 11.7143C71.248 11.0347 70.834 10.0638 70.834 8.80171L70.8658 8.78553Z" fill="#0086FF"/>
<path d="M78.9385 1.37451H81.1039V5.56545C81.7567 4.95056 82.505 4.64312 83.3489 4.64312C84.1927 4.64312 85.0525 4.93438 85.5938 5.51691C86.1352 6.09943 86.4059 6.85995 86.4059 7.7661V12.4748H84.2405V8.04118C84.2405 7.53956 84.1131 7.16739 83.8424 6.90849C83.5718 6.64959 83.2215 6.52014 82.7916 6.52014C82.1069 6.52014 81.5497 6.84377 81.1198 7.49102V12.4587H78.9544V1.37451H78.9385Z" fill="#0086FF"/>
<path d="M94.861 10.5169C94.861 10.8567 95.0361 11.0185 95.3864 11.0185C95.7367 11.0185 95.673 11.0024 95.8004 10.9538V12.3939C95.4023 12.5396 95.0043 12.6205 94.5903 12.6205C93.7942 12.6205 93.2529 12.3292 92.9344 11.7629C92.1543 12.3939 91.2467 12.7014 90.2277 12.7014C89.2087 12.7014 88.8584 12.491 88.3648 12.0703C87.8553 11.6496 87.6006 11.0833 87.6006 10.3713C87.6006 9.65932 87.7757 9.27097 88.126 8.86644C88.4763 8.4619 88.8903 8.18682 89.3679 8.04119C89.8456 7.89556 90.3392 7.83084 90.8964 7.83084C91.4537 7.83084 92.1065 7.89556 92.6797 8.04119V7.76611C92.6797 7.37776 92.5364 7.07032 92.2339 6.8276C91.9313 6.60106 91.5015 6.47161 90.9283 6.47161C90.1003 6.47161 89.2087 6.66579 88.2693 7.03796V5.12857C89.2724 4.78877 90.2436 4.62695 91.1671 4.62695C93.6191 4.62695 94.861 5.77582 94.861 8.07355V10.5007V10.5169ZM91.4059 9.1577C90.9601 9.1577 90.578 9.2386 90.2755 9.4166C89.973 9.57841 89.8297 9.85349 89.8297 10.2095C89.8297 10.5655 89.9411 10.7111 90.164 10.8891C90.3869 11.0671 90.6735 11.148 90.992 11.148C91.6448 11.148 92.2179 10.9376 92.6797 10.5331V9.33569C92.202 9.22242 91.7721 9.1577 91.4059 9.1577Z" fill="#0086FF"/>
<path d="M99.1914 2.34556C99.1914 2.7501 99.064 3.07372 98.8252 3.28408C98.5863 3.49443 98.2838 3.6077 97.9017 3.6077C97.5196 3.6077 97.233 3.49443 96.9941 3.28408C96.7553 3.07372 96.6279 2.76628 96.6279 2.34556C96.6279 1.92485 96.7553 1.63359 96.9941 1.42323C97.233 1.21288 97.5355 1.09961 97.9017 1.09961C98.2679 1.09961 98.5704 1.21288 98.8092 1.42323C99.0481 1.63359 99.1754 1.94103 99.1754 2.34556H99.1914ZM99.0162 12.4912H96.8508V4.86984H99.0162V12.4912Z" fill="#0086FF"/>
<path d="M102.806 5.84048C103.49 5.0476 104.318 4.64307 105.306 4.64307C106.293 4.64307 107.009 4.93433 107.551 5.51685C108.092 6.09938 108.363 6.85989 108.363 7.76604V12.4748H106.197V8.04113C106.197 7.53951 106.07 7.16734 105.799 6.90844C105.528 6.64954 105.178 6.52009 104.748 6.52009C104.064 6.52009 103.506 6.84371 103.077 7.49096V12.4586H100.911V4.8696H102.838V5.84048H102.806Z" fill="#0086FF"/>
</svg>
