<svg width="28" height="28" viewBox="0 0 28 28" fill="none" xmlns="http://www.w3.org/2000/svg">
<g clip-path="url(#clip0_3433_2023)">
<path d="M1.75 6.125C1.75 4.96468 2.21094 3.85188 3.03141 3.03141C3.85188 2.21094 4.96468 1.75 6.125 1.75H18.375C19.5353 1.75 20.6481 2.21094 21.4686 3.03141C22.2891 3.85188 22.75 4.96468 22.75 6.125V10.906C22.1795 11.151 21.6458 11.5063 21.1803 11.9718L21 12.152V8.75H3.5V18.375C3.5 19.0712 3.77656 19.7389 4.26884 20.2312C4.76113 20.7234 5.42881 21 6.125 21H12.2255C11.8282 21.525 11.5255 22.1182 11.333 22.75H6.125C4.96468 22.75 3.85188 22.2891 3.03141 21.4686C2.21094 20.6481 1.75 19.5353 1.75 18.375V6.125ZM18.1195 14.2555C18.2665 14.4025 18.3487 14.588 18.3697 14.7805L13.9073 19.2447C13.7434 19.2269 13.5879 19.1631 13.4587 19.0607C13.3294 18.9584 13.2318 18.8216 13.1769 18.6661C13.1221 18.5107 13.1122 18.3429 13.1485 18.1821C13.1849 18.0213 13.2659 17.874 13.3822 17.7572L16.261 14.875L13.3805 11.9945C13.2991 11.9131 13.2346 11.8166 13.1906 11.7103C13.1466 11.604 13.1239 11.4901 13.1239 11.375C13.1239 11.2599 13.1466 11.146 13.1906 11.0397C13.2346 10.9334 13.2991 10.8369 13.3805 10.7555C13.4619 10.6741 13.5584 10.6096 13.6647 10.5656C13.771 10.5216 13.8849 10.4989 14 10.4989C14.1151 10.4989 14.229 10.5216 14.3353 10.5656C14.4416 10.6096 14.5381 10.6741 14.6195 10.7555L18.1195 14.2555ZM11.1195 10.7555C11.201 10.8368 11.2656 10.9333 11.3097 11.0396C11.3539 11.1459 11.3766 11.2599 11.3766 11.375C11.3766 11.4901 11.3539 11.6041 11.3097 11.7104C11.2656 11.8167 11.201 11.9132 11.1195 11.9945L8.23725 14.875L11.1195 17.7555C11.2838 17.9198 11.3761 18.1426 11.3761 18.375C11.3761 18.6074 11.2838 18.8302 11.1195 18.9945C10.9552 19.1588 10.7324 19.2511 10.5 19.2511C10.2676 19.2511 10.0448 19.1588 9.8805 18.9945L6.3805 15.4945C6.29901 15.4132 6.23436 15.3167 6.19025 15.2104C6.14614 15.1041 6.12344 14.9901 6.12344 14.875C6.12344 14.7599 6.14614 14.6459 6.19025 14.5396C6.23436 14.4333 6.29901 14.3368 6.3805 14.2555L9.8805 10.7555C9.96178 10.674 10.0583 10.6094 10.1646 10.5653C10.2709 10.5211 10.3849 10.4984 10.5 10.4984C10.6151 10.4984 10.7291 10.5211 10.8354 10.5653C10.9417 10.6094 11.0382 10.674 11.1195 10.7555ZM13.965 21.6597L22.4175 13.2072C23.0315 12.5937 23.8642 12.2492 24.7322 12.2495C25.6003 12.2498 26.4327 12.595 27.0462 13.209C27.6598 13.823 28.0044 14.6557 28.004 15.5237C28.0037 16.3918 27.6585 17.2242 27.0445 17.8377L18.592 26.2885C18.0994 26.7809 17.4825 27.1305 16.807 27.3L14.1855 27.9545C13.9248 28.0195 13.6518 28.0159 13.3929 27.9441C13.134 27.8724 12.8981 27.7349 12.7081 27.5451C12.518 27.3552 12.3803 27.1194 12.3083 26.8606C12.2364 26.6018 12.2325 26.3287 12.2972 26.068L12.9535 23.4465C13.123 22.771 13.4726 22.1541 13.965 21.6615" fill="#121212"/>
</g>
<defs>
<clipPath id="clip0_3433_2023">
<rect width="28" height="28" fill="white"/>
</clipPath>
</defs>
</svg>
