<svg width="28" height="28" viewBox="0 0 28 28" fill="none" xmlns="http://www.w3.org/2000/svg">
<path fill-rule="evenodd" clip-rule="evenodd" d="M14.8247 2.6752C14.606 2.45649 14.3093 2.33362 13.9999 2.33362C13.6906 2.33362 13.3939 2.45649 13.1751 2.6752L9.67508 6.1752C9.45636 6.39398 9.3335 6.69068 9.3335 7.00004C9.3335 7.30939 9.45636 7.60609 9.67508 7.82487L13.1751 11.3249C13.3939 11.5436 13.6906 11.6665 13.9999 11.6665C14.3093 11.6665 14.606 11.5436 14.8247 11.3249L18.3247 7.82487C18.5435 7.60609 18.6663 7.30939 18.6663 7.00004C18.6663 6.69068 18.5435 6.39398 18.3247 6.1752L14.8247 2.6752ZM13.1751 16.6752C13.3939 16.4565 13.6906 16.3336 13.9999 16.3336C14.3093 16.3336 14.606 16.4565 14.8247 16.6752L18.3247 20.1752C18.5435 20.394 18.6663 20.6907 18.6663 21C18.6663 21.3094 18.5435 21.6061 18.3247 21.8249L14.8247 25.3249C14.606 25.5436 14.3093 25.6665 13.9999 25.6665C13.6906 25.6665 13.3939 25.5436 13.1751 25.3249L9.67508 21.8249C9.45636 21.6061 9.3335 21.3094 9.3335 21C9.3335 20.6907 9.45636 20.394 9.67508 20.1752L13.1751 16.6752ZM20.1751 9.6752C20.3939 9.45649 20.6906 9.33362 20.9999 9.33362C21.3093 9.33362 21.606 9.45649 21.8247 9.6752L25.3247 13.1752C25.5435 13.394 25.6663 13.6907 25.6663 14C25.6663 14.3094 25.5435 14.6061 25.3247 14.8249L21.8247 18.3249C21.606 18.5436 21.3093 18.6665 20.9999 18.6665C20.6906 18.6665 20.3939 18.5436 20.1751 18.3249L16.6751 14.8249C16.4564 14.6061 16.3335 14.3094 16.3335 14C16.3335 13.6907 16.4564 13.394 16.6751 13.1752L20.1751 9.6752ZM6.17508 9.6752C6.39386 9.45649 6.69056 9.33362 6.99991 9.33362C7.30927 9.33362 7.60596 9.45649 7.82475 9.6752L11.3247 13.1752C11.5435 13.394 11.6663 13.6907 11.6663 14C11.6663 14.3094 11.5435 14.6061 11.3247 14.8249L7.82475 18.3249C7.60596 18.5436 7.30927 18.6665 6.99991 18.6665C6.69056 18.6665 6.39386 18.5436 6.17508 18.3249L2.67508 14.8249C2.45636 14.6061 2.3335 14.3094 2.3335 14C2.3335 13.6907 2.45636 13.394 2.67508 13.1752L6.17508 9.6752Z" fill="#74EB69"/>
</svg>
