<svg width="28" height="28" viewBox="0 0 28 28" fill="none" xmlns="http://www.w3.org/2000/svg">
<path fill-rule="evenodd" clip-rule="evenodd" d="M16.3334 2.33328C16.3335 2.0768 16.2491 1.82744 16.0933 1.62375C15.9374 1.42006 15.7188 1.2734 15.4712 1.20646C15.2236 1.13952 14.9609 1.15602 14.7236 1.25342C14.4864 1.35082 14.2878 1.52368 14.1587 1.74528L5.99202 15.7453C5.88856 15.9226 5.83371 16.124 5.83301 16.3293C5.83232 16.5346 5.8858 16.7364 5.98805 16.9144C6.09031 17.0924 6.23772 17.2403 6.4154 17.3431C6.59308 17.4459 6.79474 17.5 7.00002 17.4999H11.6667V25.6666C11.6666 25.9231 11.7509 26.1724 11.9068 26.3761C12.0626 26.5798 12.2813 26.7265 12.5288 26.7934C12.7764 26.8604 13.0392 26.8439 13.2764 26.7465C13.5137 26.6491 13.7122 26.4762 13.8414 26.2546L22.008 12.2546C22.1115 12.0773 22.1663 11.8758 22.167 11.6706C22.1677 11.4653 22.1142 11.2635 22.012 11.0855C21.9097 10.9075 21.7623 10.7596 21.5846 10.6568C21.407 10.554 21.2053 10.4999 21 10.4999H16.3334V2.33328Z" fill="#74EB69"/>
</svg>
