<svg width="40" height="40" viewBox="0 0 40 40" fill="none" xmlns="http://www.w3.org/2000/svg">
<path d="M7.5 16.2766C7.5 9.56199 13.1234 4.16669 20 4.16669C26.8766 4.16669 32.5 9.56199 32.5 16.2766C32.5 20.1999 30.8781 23.7395 27.8418 25.9719C27.6323 26.126 27.5054 26.3171 27.4612 26.5046C27.3634 26.9203 27.2551 27.4017 27.144 27.9184C27.1109 28.0723 26.975 28.1826 26.8175 28.1826H21.5833C21.3992 28.1826 21.25 28.0334 21.25 27.8493V26.7427L22.9989 23.9958C23.344 23.4537 23.2219 22.7383 22.7165 22.3414L19.7181 19.9866L21.0544 17.8876C21.4252 17.3053 21.2537 16.5326 20.6713 16.1619C20.089 15.7911 19.3163 15.9626 18.9456 16.545L17.0011 19.5991C16.656 20.1411 16.7781 20.8566 17.2835 21.2535L20.2819 23.6082L18.9456 25.7072C18.8178 25.9078 18.75 26.1407 18.75 26.3785V27.8493C18.75 28.0334 18.6008 28.1826 18.4167 28.1826H13.1825C13.025 28.1826 12.8891 28.0723 12.856 27.9184C12.7449 27.4017 12.6366 26.9203 12.5388 26.5047C12.4946 26.3171 12.3677 26.126 12.1582 25.9719C9.12188 23.7395 7.5 20.1999 7.5 16.2766Z" fill="#74EB69"/>
<path d="M13.8017 30.6826C13.5941 30.6826 13.437 30.8704 13.4723 31.0751C13.646 32.0818 13.7743 32.9873 13.8114 33.5999C13.9164 35.3352 15.1945 36.7646 16.9037 37.1339L17.2303 37.2045C19.0544 37.5985 20.9456 37.5985 22.7697 37.2045L23.0963 37.1339C24.8055 36.7646 26.0836 35.3352 26.1886 33.5999C26.2257 32.9873 26.354 32.0818 26.5277 31.0751C26.5629 30.8704 26.4059 30.6826 26.1983 30.6826H13.8017Z" fill="#74EB69"/>
</svg>
