<svg width="40" height="40" viewBox="0 0 40 40" fill="none" xmlns="http://www.w3.org/2000/svg">
<path d="M23.0333 5.00004C23.0333 4.66596 22.8338 4.36417 22.5264 4.2333C22.2191 4.10244 21.8632 4.16779 21.6224 4.39935L18.6592 7.24863C14.2471 11.491 10.5191 16.3913 7.60768 21.7753C7.53913 21.8963 7.5 22.0362 7.5 22.1853C7.5 22.6455 7.8731 23.0186 8.33333 23.0186H15.5167V35C15.5167 35.33 15.7114 35.629 16.0133 35.7623C16.3151 35.8957 16.6672 35.8383 16.9112 35.6161L18.237 34.4083C22.8782 30.1805 26.8169 25.241 29.9054 19.7751L30.7255 18.3236C30.8713 18.0656 30.8691 17.7496 30.7197 17.4937C30.5704 17.2377 30.2963 17.0804 30 17.0804H23.0333V5.00004Z" fill="#74EB69"/>
</svg>
