<svg width="40" height="40" viewBox="0 0 40 40" fill="none" xmlns="http://www.w3.org/2000/svg">
<path d="M16.6667 6.25C13.2149 6.25 10.4167 9.04822 10.4167 12.5C10.4167 15.9518 13.2149 18.75 16.6667 18.75C20.1184 18.75 22.9167 15.9518 22.9167 12.5C22.9167 9.04822 20.1184 6.25 16.6667 6.25Z" fill="#74EB69"/>
<path d="M10 22.0833C6.54822 22.0833 3.75 24.8816 3.75 28.3333V30.3138C3.75 31.5692 4.65981 32.6396 5.89879 32.8419C9.58334 33.4434 13.3057 33.7342 17.0268 33.7141C17.287 33.7127 17.4443 33.4249 17.317 33.198C16.3721 31.5129 15.8333 29.5694 15.8333 27.5C15.8333 26.1882 16.0498 24.927 16.4491 23.7501C16.5241 23.5289 16.3636 23.2937 16.1303 23.2834C15.0439 23.2351 13.9624 23.0401 12.916 22.6984L11.4735 22.2274C11.1812 22.132 10.8756 22.0833 10.5681 22.0833H10Z" fill="#74EB69"/>
<path d="M28.75 25C28.75 24.3096 28.1904 23.75 27.5 23.75C26.8096 23.75 26.25 24.3096 26.25 25V27.9545C26.25 28.3545 26.4414 28.7302 26.7648 28.9655L28.4315 30.1776C28.9898 30.5836 29.7715 30.4602 30.1776 29.9019C30.5836 29.3436 30.4602 28.5618 29.9019 28.1557L28.75 27.318V25Z" fill="#74EB69"/>
<path fill-rule="evenodd" clip-rule="evenodd" d="M27.5 36.6667C32.5626 36.6667 36.6667 32.5626 36.6667 27.5C36.6667 22.4374 32.5626 18.3333 27.5 18.3333C22.4374 18.3333 18.3333 22.4374 18.3333 27.5C18.3333 32.5626 22.4374 36.6667 27.5 36.6667ZM27.5 34.1667C31.1819 34.1667 34.1667 31.1819 34.1667 27.5C34.1667 23.8181 31.1819 20.8333 27.5 20.8333C23.8181 20.8333 20.8333 23.8181 20.8333 27.5C20.8333 31.1819 23.8181 34.1667 27.5 34.1667Z" fill="#74EB69"/>
</svg>
