<svg width="40" height="40" viewBox="0 0 40 40" fill="none" xmlns="http://www.w3.org/2000/svg">
<path fill-rule="evenodd" clip-rule="evenodd" d="M35.0169 16.9522L35.0212 22.9903C34.9787 23.5655 34.9239 24.1401 34.8569 24.7136C34.7447 25.6726 33.9651 26.4461 32.9861 26.5556C29.9199 26.8983 26.7468 26.8983 23.6806 26.5556C22.7016 26.4461 21.922 25.6726 21.8098 24.7136C21.4435 21.5819 21.4435 18.4182 21.8098 15.2865C21.922 14.3275 22.7016 13.5539 23.6806 13.4445C26.7468 13.1018 29.9199 13.1018 32.9861 13.4445C33.9651 13.5539 34.7447 14.3275 34.8569 15.2865C34.9217 15.8408 34.9751 16.3962 35.0169 16.9522ZM28.3333 17.5C26.9526 17.5 25.8333 18.6193 25.8333 20C25.8333 21.3807 26.9526 22.5 28.3333 22.5C29.7141 22.5 30.8333 21.3807 30.8333 20C30.8333 18.6193 29.7141 17.5 28.3333 17.5Z" fill="#74EB69"/>
<path d="M34.006 10.0662C34.2651 10.515 33.7788 11.0175 33.2638 10.96C30.013 10.5966 26.6537 10.5966 23.4029 10.96C21.2873 11.1964 19.5763 12.8623 19.3267 14.9961C18.9379 18.3207 18.9379 21.6793 19.3267 25.004C19.5763 27.1377 21.2873 28.8036 23.4029 29.0401C26.6537 29.4034 30.013 29.4034 33.2638 29.0401C33.7822 28.9821 34.2726 29.4882 34.0109 29.9394C32.7133 32.1775 30.3998 33.7395 27.7114 34.0224L26.6249 34.1367C21.1068 34.7174 15.5411 34.6791 10.0315 34.0225L9.31162 33.9367C6.34141 33.5828 3.988 31.2622 3.59238 28.2973C2.85755 22.7902 2.85755 17.2099 3.59238 11.7028C3.988 8.73783 6.34141 6.41724 9.31162 6.0633L10.0315 5.97751C15.5411 5.32097 21.1068 5.28268 26.6249 5.86335L27.7114 5.97768C30.402 6.26081 32.7119 7.82516 34.006 10.0662Z" fill="#74EB69"/>
</svg>
